<svg width="123" height="106" viewBox="0 0 123 106" fill="none" xmlns="http://www.w3.org/2000/svg">
<path d="M92.25 0C109.239 0 123 13.4914 123 30.1348C123 55.219 98.1387 64.0675 64.5137 103.996C64.1435 104.435 63.6816 104.788 63.1611 105.029C62.6407 105.271 62.0738 105.396 61.5 105.396C60.9262 105.396 60.3593 105.271 59.8389 105.029C59.3184 104.788 58.8565 104.435 58.4863 103.996C24.8613 64.0675 0 55.219 0 30.1348C0.00013054 13.4914 13.7607 0 30.75 0C47.7393 0 61.4999 13.4914 61.5 30.1348C61.5001 13.4914 75.2607 0 92.25 0Z" fill="#AEAEAE"/>
<path d="M92.25 0C109.239 0 123 13.4914 123 30.1348C123 55.219 98.1387 64.0675 64.5137 103.996C64.1435 104.435 63.6816 104.788 63.1611 105.029C62.6407 105.271 62.0738 105.396 61.5 105.396C60.9262 105.396 60.3593 105.271 59.8389 105.029C59.3184 104.788 58.8565 104.435 58.4863 103.996C24.8613 64.0675 0 55.219 0 30.1348C0.00013054 13.4914 13.7607 0 30.75 0C47.7393 0 61.4999 13.4914 61.5 30.1348C61.5001 13.4914 75.2607 0 92.25 0Z" stroke="#7418BA"/>
</svg>
