<svg width="123" height="123" viewBox="0 0 123 123" fill="none" xmlns="http://www.w3.org/2000/svg">
<path d="M30.75 7.6875C47.7394 7.6875 61.5 21.1791 61.5 37.8225C61.5 21.1791 75.2606 7.6875 92.25 7.6875C109.239 7.6875 123 21.1791 123 37.8225C123 62.9068 98.1386 71.7551 64.5135 111.684C64.1433 112.123 63.6819 112.475 63.1614 112.717C62.6409 112.959 62.0739 113.084 61.5 113.084C60.9261 113.084 60.3591 112.959 59.8386 112.717C59.3181 112.475 58.8567 112.123 58.4865 111.684C24.8614 71.7551 0 62.9068 0 37.8225C0 21.1791 13.7606 7.6875 30.75 7.6875Z" fill="#7418BA"/>
</svg>
