<svg width="89" height="93" viewBox="0 0 89 93" fill="none" xmlns="http://www.w3.org/2000/svg">
<path d="M88.0581 46.6002C88.0581 46.0343 88.0581 45.493 88.0335 44.9271C87.7874 37.349 85.8191 30.2138 82.5222 23.9644C74.9933 9.66941 60.5999 0 44.0413 0C27.4828 0 13.0648 9.66941 5.53592 23.9644C2.23897 30.2384 0.270669 37.349 0.0246281 44.9271C2.4028e-05 45.493 0 46.0343 0 46.6002V69.7772C0 79.9387 7.15976 88.4025 16.7308 90.4447C17.7641 91.5027 19.3389 92.2162 21.1104 92.2162C22.8819 92.2162 24.4565 91.5273 25.4899 90.4447L25.5637 90.3709V49.1836H25.5391C24.5303 48.0764 22.9064 47.3383 21.0857 47.3383C19.265 47.3383 17.6412 48.0764 16.6324 49.1836H16.6078C13.3108 49.8725 10.3092 51.3734 7.79953 53.4155C7.6027 53.5877 6.00338 55.0148 5.5113 55.6053V46.1819C5.5113 45.5176 6.05259 44.9517 6.7415 44.9517H6.79076H7.28279C8.09473 24.235 24.2351 7.70108 43.9921 7.70108C63.7492 7.70108 79.8649 24.235 80.6769 44.9517H81.2427C81.9316 44.9517 82.4729 45.5176 82.4729 46.1819V55.6053C81.9808 55.0148 81.415 54.4489 80.8245 53.9814C80.8245 53.9814 80.3816 53.5877 80.1848 53.4155C77.6751 51.3734 74.6735 49.8971 71.3765 49.1836C70.3432 48.0764 68.7193 47.3383 66.8986 47.3383C65.0779 47.3383 63.5032 48.0272 62.4452 49.159V90.4201C62.4452 90.4201 62.4698 90.4447 62.4944 90.4447C63.5278 91.5027 65.127 92.2162 66.8739 92.2162C68.6208 92.2162 70.2201 91.5273 71.2535 90.4447C80.8245 88.4025 87.9843 79.9387 87.9843 69.7772C87.9843 68.1534 87.7875 66.5541 87.443 65.0286C87.7875 66.5541 87.9843 68.1288 87.9843 69.7772V46.6002H88.0581Z" fill="#AEAEAE"/>
</svg>
