<svg width="260" height="244" viewBox="0 0 260 244" fill="none" xmlns="http://www.w3.org/2000/svg">
<path d="M28 3.5H214.227C224.275 3.5 233.305 9.63605 237.005 18.9785L253.888 61.6045C255.025 64.4763 255.609 67.5372 255.609 70.626V215.474C255.609 229.005 244.64 239.974 231.109 239.974H28C14.469 239.974 3.5 229.005 3.5 215.474V28L3.50781 27.3672C3.84346 14.1287 14.6806 3.5 28 3.5Z" fill="white" stroke="#B158F5" stroke-width="7"/>
<rect x="80.1153" y="5.5" width="98.8787" height="79.9749" fill="white" stroke="#B158F5" stroke-width="11"/>
<rect x="145.901" y="29.113" width="13.7978" height="24.1462" fill="#B158F5"/>
<rect x="55.8732" y="146.876" width="154.133" height="93.0977" fill="white" stroke="#B158F5" stroke-width="7"/>
<rect x="76.912" y="166.66" width="117.281" height="7.76123" fill="#B158F5"/>
<rect x="76.912" y="185.664" width="117.281" height="7.76123" fill="#B158F5"/>
<rect x="76.912" y="204.667" width="117.281" height="7.76123" fill="#B158F5"/>
</svg>
