<svg width="375" height="248" viewBox="0 0 375 248" fill="none" xmlns="http://www.w3.org/2000/svg">
<path d="M101.104 165V76.552H123.376V165H101.104ZM87.28 120.968V102.408H137.2V120.968H87.28ZM182.276 166.28C178.265 166.28 174.553 165.512 171.14 163.976C167.727 162.355 164.911 160.179 162.692 157.448C160.473 154.717 159.108 151.731 158.596 148.488V117.896C159.108 114.653 160.473 111.752 162.692 109.192C164.996 106.632 167.855 104.669 171.268 103.304C174.681 101.853 178.351 101.128 182.276 101.128C188.335 101.128 193.668 102.536 198.276 105.352C202.884 108.083 206.468 111.923 209.028 116.872C211.673 121.821 212.996 127.453 212.996 133.768C212.996 139.997 211.673 145.587 209.028 150.536C206.468 155.4 202.884 159.24 198.276 162.056C193.668 164.872 188.335 166.28 182.276 166.28ZM145.028 165V71.688H167.3V117.768L163.588 132.872L166.788 148.232V165H145.028ZM178.308 146.44C180.697 146.44 182.788 145.885 184.58 144.776C186.457 143.667 187.908 142.173 188.932 140.296C189.956 138.333 190.468 136.115 190.468 133.64C190.468 131.251 189.956 129.117 188.932 127.24C187.908 125.277 186.457 123.741 184.58 122.632C182.703 121.523 180.569 120.968 178.18 120.968C175.791 120.968 173.657 121.523 171.78 122.632C169.988 123.741 168.58 125.235 167.556 127.112C166.532 128.989 166.02 131.165 166.02 133.64C166.02 136.2 166.532 138.461 167.556 140.424C168.58 142.301 170.031 143.795 171.908 144.904C173.785 145.928 175.919 146.44 178.308 146.44ZM229.729 165V76.552H252.001V165H229.729ZM215.905 120.968V102.408H265.825V120.968H215.905Z" fill="black"/>
<rect x="15.5" y="15.5" width="327" height="217" rx="69.5" stroke="black" stroke-width="31"/>
</svg>
