<svg width="285" height="73" viewBox="0 0 285 73" fill="none" xmlns="http://www.w3.org/2000/svg">
<path d="M29 4.5H256C269.531 4.5 280.5 15.469 280.5 29C280.5 42.531 269.531 53.5 256 53.5H29C15.469 53.5 4.5 42.531 4.5 29C4.5 15.469 15.469 4.5 29 4.5Z" fill="white" stroke="black" stroke-width="9"/>
<path d="M51.776 41V18.888H57.344V41H51.776ZM48.32 29.992V25.352H60.8V29.992H48.32ZM62.757 41V25.352H68.325V41H62.757ZM68.325 32.488L65.829 30.376C66.4477 28.6053 67.269 27.272 68.293 26.376C69.317 25.48 70.6503 25.032 72.293 25.032C73.0397 25.032 73.6797 25.128 74.213 25.32C74.7677 25.512 75.237 25.8107 75.621 26.216L72.389 30.536C72.2183 30.344 71.973 30.1947 71.653 30.088C71.3543 29.96 71.013 29.896 70.629 29.896C69.9037 29.896 69.3383 30.12 68.933 30.568C68.5277 30.9947 68.325 31.6347 68.325 32.488ZM82.8163 41.32C81.3656 41.32 80.0749 40.968 78.9443 40.264C77.8136 39.56 76.9283 38.6 76.2883 37.384C75.6483 36.1467 75.3283 34.7493 75.3283 33.192C75.3283 31.6133 75.6483 30.2053 76.2883 28.968C76.9283 27.7307 77.8136 26.7707 78.9443 26.088C80.0749 25.384 81.3656 25.032 82.8163 25.032C83.7976 25.032 84.6936 25.2133 85.5043 25.576C86.3149 25.9173 86.9763 26.408 87.4883 27.048C88.0216 27.688 88.3416 28.4133 88.4483 29.224V37.096C88.3416 37.928 88.0216 38.664 87.4883 39.304C86.9763 39.9227 86.3149 40.4133 85.5043 40.776C84.6936 41.1387 83.7976 41.32 82.8163 41.32ZM84.0003 36.36C84.9176 36.36 85.6536 36.0613 86.2083 35.464C86.7843 34.8667 87.0723 34.0987 87.0723 33.16C87.0723 32.5413 86.9443 31.9973 86.6883 31.528C86.4323 31.0587 86.0696 30.6853 85.6003 30.408C85.1523 30.1307 84.6296 29.992 84.0323 29.992C83.4349 29.992 82.9016 30.1307 82.4323 30.408C81.9843 30.6853 81.6216 31.0693 81.3443 31.56C81.0883 32.0293 80.9603 32.5627 80.9603 33.16C80.9603 33.7787 81.0883 34.3333 81.3443 34.824C81.6003 35.2933 81.9629 35.6667 82.4323 35.944C82.9016 36.2213 83.4243 36.36 84.0003 36.36ZM86.8483 41V36.808L87.6483 32.968L86.8483 29.192V25.352H92.3203V41H86.8483ZM103.314 41.352C101.65 41.352 100.146 41 98.8015 40.296C97.4788 39.592 96.4335 38.6213 95.6655 37.384C94.8975 36.1467 94.5135 34.7493 94.5135 33.192C94.5135 31.6133 94.8975 30.2053 95.6655 28.968C96.4548 27.7307 97.5108 26.76 98.8335 26.056C100.178 25.3307 101.692 24.968 103.378 24.968C104.594 24.968 105.703 25.1707 106.706 25.576C107.708 25.9813 108.626 26.5893 109.458 27.4L105.938 30.92C105.618 30.6 105.244 30.3653 104.818 30.216C104.412 30.0453 103.932 29.96 103.378 29.96C102.78 29.96 102.236 30.0987 101.746 30.376C101.276 30.632 100.892 30.9947 100.594 31.464C100.316 31.9333 100.178 32.4987 100.178 33.16C100.178 33.8 100.316 34.3653 100.594 34.856C100.892 35.3253 101.276 35.6987 101.746 35.976C102.236 36.2533 102.78 36.392 103.378 36.392C103.975 36.392 104.487 36.296 104.914 36.104C105.34 35.912 105.714 35.6347 106.034 35.272L109.586 38.792C108.711 39.6453 107.762 40.2853 106.738 40.712C105.735 41.1387 104.594 41.352 103.314 41.352ZM121.649 41L116.721 32.808L121.617 25.352H127.729L121.649 33.768L121.809 31.72L128.049 41H121.649ZM111.601 41V17.672H117.169V41H111.601ZM138.944 41.32C137.941 41.32 137.013 41.128 136.16 40.744C135.307 40.3387 134.603 39.7947 134.048 39.112C133.493 38.4293 133.152 37.6827 133.024 36.872V29.224C133.152 28.4133 133.493 27.688 134.048 27.048C134.624 26.408 135.339 25.9173 136.192 25.576C137.045 25.2133 137.963 25.032 138.944 25.032C140.459 25.032 141.792 25.384 142.944 26.088C144.096 26.7707 144.992 27.7307 145.632 28.968C146.293 30.2053 146.624 31.6133 146.624 33.192C146.624 34.7493 146.293 36.1467 145.632 37.384C144.992 38.6 144.096 39.56 142.944 40.264C141.792 40.968 140.459 41.32 138.944 41.32ZM129.632 41V17.672H135.2V29.192L134.272 32.968L135.072 36.808V41H129.632ZM137.952 36.36C138.549 36.36 139.072 36.2213 139.52 35.944C139.989 35.6667 140.352 35.2933 140.608 34.824C140.864 34.3333 140.992 33.7787 140.992 33.16C140.992 32.5627 140.864 32.0293 140.608 31.56C140.352 31.0693 139.989 30.6853 139.52 30.408C139.051 30.1307 138.517 29.992 137.92 29.992C137.323 29.992 136.789 30.1307 136.32 30.408C135.872 30.6853 135.52 31.0587 135.264 31.528C135.008 31.9973 134.88 32.5413 134.88 33.16C134.88 33.8 135.008 34.3653 135.264 34.856C135.52 35.3253 135.883 35.6987 136.352 35.976C136.821 36.232 137.355 36.36 137.952 36.36ZM153.21 41.032L146.938 25.352H152.89L156.73 38.248H154.394L158.266 25.352H164.218L157.786 41.032H153.21ZM149.498 47.624L154.138 37.416L157.786 41.032L155.098 47.624H149.498ZM167.745 41V18.888H173.313V41H167.745ZM164.289 29.992V25.352H176.769V29.992H164.289ZM178.726 41V25.352H184.294V41H178.726ZM184.294 32.488L181.798 30.376C182.416 28.6053 183.238 27.272 184.262 26.376C185.286 25.48 186.619 25.032 188.262 25.032C189.008 25.032 189.648 25.128 190.182 25.32C190.736 25.512 191.206 25.8107 191.59 26.216L188.358 30.536C188.187 30.344 187.942 30.1947 187.622 30.088C187.323 29.96 186.982 29.896 186.598 29.896C185.872 29.896 185.307 30.12 184.902 30.568C184.496 30.9947 184.294 31.6347 184.294 32.488ZM198.785 41.32C197.334 41.32 196.044 40.968 194.913 40.264C193.782 39.56 192.897 38.6 192.257 37.384C191.617 36.1467 191.297 34.7493 191.297 33.192C191.297 31.6133 191.617 30.2053 192.257 28.968C192.897 27.7307 193.782 26.7707 194.913 26.088C196.044 25.384 197.334 25.032 198.785 25.032C199.766 25.032 200.662 25.2133 201.473 25.576C202.284 25.9173 202.945 26.408 203.457 27.048C203.99 27.688 204.31 28.4133 204.417 29.224V37.096C204.31 37.928 203.99 38.664 203.457 39.304C202.945 39.9227 202.284 40.4133 201.473 40.776C200.662 41.1387 199.766 41.32 198.785 41.32ZM199.969 36.36C200.886 36.36 201.622 36.0613 202.177 35.464C202.753 34.8667 203.041 34.0987 203.041 33.16C203.041 32.5413 202.913 31.9973 202.657 31.528C202.401 31.0587 202.038 30.6853 201.569 30.408C201.121 30.1307 200.598 29.992 200.001 29.992C199.404 29.992 198.87 30.1307 198.401 30.408C197.953 30.6853 197.59 31.0693 197.313 31.56C197.057 32.0293 196.929 32.5627 196.929 33.16C196.929 33.7787 197.057 34.3333 197.313 34.824C197.569 35.2933 197.932 35.6667 198.401 35.944C198.87 36.2213 199.393 36.36 199.969 36.36ZM202.817 41V36.808L203.617 32.968L202.817 29.192V25.352H208.289V41H202.817ZM219.282 41.352C217.618 41.352 216.114 41 214.77 40.296C213.448 39.592 212.402 38.6213 211.634 37.384C210.866 36.1467 210.482 34.7493 210.482 33.192C210.482 31.6133 210.866 30.2053 211.634 28.968C212.424 27.7307 213.48 26.76 214.802 26.056C216.146 25.3307 217.661 24.968 219.346 24.968C220.562 24.968 221.672 25.1707 222.674 25.576C223.677 25.9813 224.594 26.5893 225.426 27.4L221.906 30.92C221.586 30.6 221.213 30.3653 220.786 30.216C220.381 30.0453 219.901 29.96 219.346 29.96C218.749 29.96 218.205 30.0987 217.714 30.376C217.245 30.632 216.861 30.9947 216.562 31.464C216.285 31.9333 216.146 32.4987 216.146 33.16C216.146 33.8 216.285 34.3653 216.562 34.856C216.861 35.3253 217.245 35.6987 217.714 35.976C218.205 36.2533 218.749 36.392 219.346 36.392C219.944 36.392 220.456 36.296 220.882 36.104C221.309 35.912 221.682 35.6347 222.002 35.272L225.554 38.792C224.68 39.6453 223.73 40.2853 222.706 40.712C221.704 41.1387 220.562 41.352 219.282 41.352ZM237.618 41L232.69 32.808L237.586 25.352H243.698L237.618 33.768L237.778 31.72L244.017 41H237.618ZM227.57 41V17.672H233.138V41H227.57Z" fill="black"/>
</svg>
